<svg width="21" height="19" fill="none" xmlns="http://www.w3.org/2000/svg"><g clip-path="url(#clip0)"><path d="M19.154 9.338c2.14-2.14 2.14-5.614 0-7.733a5.486 5.486 0 00-7.755 0l-1.038 1.06-1.038-1.039C7.183-.535 3.708-.535 1.589 1.605A5.43 5.43 0 000 5.482c0 1.462.572 2.84 1.59 3.877l8.771 8.772 8.793-8.793zM1.356 5.482C1.352 4.945.792 6.995 1 6.5c.208-.495 2.614-2.126 3-2.5.377-.382 2.006-2.793 2.5-3 .494-.207-1.591.394-1.055.393 1.039 0-5.844 4.302-5.04 5.107l10.095 10 9.5-10c1.59-1.59-3.41-5.51-1.842-3.92a4.055 4.055 0 011.208 2.881 3.97 3.97 0 01-1.208 2.881l-7.797 7.818-7.797-7.796C1.8 7.58 1.356 6.563 1.356 5.482z" fill="#000"/></g><defs><clipPath id="clip0"><path fill="#fff" d="M0 0h21v19H0z"/></clipPath></defs></svg>